<?xml version="1.0" encoding="utf-8"?>
<!-- Generator: Adobe Illustrator 21.1.0, SVG Export Plug-In . SVG Version: 6.00 Build 0)  -->
<svg version="1.1" id="Слой_1" xmlns="http://www.w3.org/2000/svg" xmlns:xlink="http://www.w3.org/1999/xlink" x="0px" y="0px"
	 viewBox="0 0 37.6 37.6" enable-background="new 0 0 37.6 37.6" xml:space="preserve">
<path fill="#29D124" d="M18.8,0C8.43,0,0,8.43,0,18.8s8.43,18.8,18.8,18.8c10.37,0,18.8-8.43,18.8-18.8S29.17,0,18.8,0z M18.8,36.8
	c-9.93,0-18-8.07-18-18c0-9.93,8.08-18,18-18c9.92,0,18,8.07,18,18C36.8,28.73,28.73,36.8,18.8,36.8z M15.07,17.61h9.73v1.57h-9.73
	l4.45,4.49L18.4,24.8L12,18.4l6.4-6.4l1.12,1.12L15.07,17.61z"/>
</svg>
