<?xml version="1.0" encoding="utf-8"?>
<!-- Generator: Adobe Illustrator 21.1.0, SVG Export Plug-In . SVG Version: 6.00 Build 0)  -->
<svg version="1.1" id="Слой_1" xmlns="http://www.w3.org/2000/svg" xmlns:xlink="http://www.w3.org/1999/xlink" x="0px" y="0px"
	 viewBox="0 0 513 1007" enable-background="new 0 0 513 1007" xml:space="preserve">
<path fill="#EDF0F3" d="M448,130c-35.9,0-65-29.1-65-65s29.1-65,65-65c35.9,0,65,29.1,65,65S483.9,130,448,130z M320,305
	c-35.9,0-65-29.1-65-65c0-35.9,29.1-65,65-65c35.9,0,65,29.1,65,65C385,275.9,355.9,305,320,305z M193,130c-35.9,0-65-29.1-65-65
	s29.1-65,65-65c35.9,0,65,29.1,65,65S228.9,130,193,130z M65,305c-35.9,0-65-29.1-65-65c0-35.9,29.1-65,65-65c35.9,0,65,29.1,65,65
	C130,275.9,100.9,305,65,305z M65,526c35.9,0,65,29.1,65,65c0,35.9-29.1,65-65,65c-35.9,0-65-29.1-65-65C0,555.1,29.1,526,65,526z
	 M65,877c35.9,0,65,29.1,65,65c0,35.9-29.1,65-65,65c-35.9,0-65-29.1-65-65C0,906.1,29.1,877,65,877z M193,701c35.9,0,65,29.1,65,65
	c0,35.9-29.1,65-65,65c-35.9,0-65-29.1-65-65C128,730.1,157.1,701,193,701z M193,480c-35.9,0-65-29.1-65-65s29.1-65,65-65
	c35.9,0,65,29.1,65,65S228.9,480,193,480z M320,526c35.9,0,65,29.1,65,65c0,35.9-29.1,65-65,65c-35.9,0-65-29.1-65-65
	C255,555.1,284.1,526,320,526z M448,701c35.9,0,65,29.1,65,65c0,35.9-29.1,65-65,65c-35.9,0-65-29.1-65-65
	C383,730.1,412.1,701,448,701z M448,480c-35.9,0-65-29.1-65-65s29.1-65,65-65c35.9,0,65,29.1,65,65S483.9,480,448,480z"/>
</svg>
