<?xml version="1.0" encoding="utf-8"?>
<!-- Generator: Adobe Illustrator 21.1.0, SVG Export Plug-In . SVG Version: 6.00 Build 0)  -->
<svg version="1.1" id="Слой_1" xmlns="http://www.w3.org/2000/svg" xmlns:xlink="http://www.w3.org/1999/xlink" x="0px" y="0px"
	 viewBox="0 0 357 953" enable-background="new 0 0 357 953" xml:space="preserve">
<path fill="#FFFFFF" d="M174,317h124l-62,107L174,317z M207.69,336.54L236,385.4l28.31-48.86H207.69z M190,0l62,107H128L190,0z
	 M190,38.6l-28.31,48.86h56.63L190,38.6z M228,953l-102-65.5L228,822V953z M208.6,857.63l-46.51,29.87l46.51,29.86V857.63z M62,473
	l62,107H0L62,473z M62,511.6l-28.31,48.86h56.63L62,511.6z M255,675V544l102,65.5L255,675z M274.4,639.36l46.5-29.86l-46.5-29.87
	V639.36z"/>
</svg>
