<?xml version="1.0" encoding="utf-8"?>
<!-- Generator: Adobe Illustrator 21.1.0, SVG Export Plug-In . SVG Version: 6.00 Build 0)  -->
<svg version="1.1" id="Слой_1" xmlns="http://www.w3.org/2000/svg" xmlns:xlink="http://www.w3.org/1999/xlink" x="0px" y="0px"
	 viewBox="0 0 16 14" enable-background="new 0 0 16 14" xml:space="preserve">
<path opacity="0.3" enable-background="new    " d="M15,3h-3V2c0-1.1-0.9-2-2-2H6C4.89,0,4,0.9,4,2v1H1C0.45,3,0,3.45,0,4v9
	c0,0.55,0.45,1,1,1h14c0.55,0,1-0.45,1-1V4C16,3.45,15.55,3,15,3z M6,2h4v1H6V2z M5,7c0,0.55-0.45,1-1,1C3.45,8,3,7.55,3,7V6
	c0-0.55,0.45-1,1-1c0.55,0,1,0.45,1,1V7z M13,7c0,0.55-0.45,1-1,1c-0.55,0-1-0.45-1-1V6c0-0.55,0.45-1,1-1c0.55,0,1,0.45,1,1V7z"/>
</svg>
