<?xml version="1.0" encoding="utf-8"?>
<!-- Generator: Adobe Illustrator 21.1.0, SVG Export Plug-In . SVG Version: 6.00 Build 0)  -->
<svg version="1.1" id="Слой_1" xmlns="http://www.w3.org/2000/svg" xmlns:xlink="http://www.w3.org/1999/xlink" x="0px" y="0px"
	 viewBox="0 0 18 20" enable-background="new 0 0 18 20" xml:space="preserve">
<path fill="#FFFFFF" d="M15,14.15c1.61,0,2.91,1.31,2.91,2.93c0,1.62-1.31,2.93-2.91,2.93c-1.61,0-2.91-1.31-2.91-2.93
	c0-0.23,0.03-0.45,0.08-0.66l-7.12-4.17c-0.54,0.5-1.25,0.81-2.04,0.81c-1.65,0-3-1.35-3-3.01s1.35-3.01,3-3.01
	c0.79,0,1.5,0.31,2.04,0.81l7.05-4.13C12.04,3.49,12,3.25,12,3.01C12,1.35,13.35,0,15,0s3,1.35,3,3.01s-1.35,3.01-3,3.01
	c-0.79,0-1.5-0.31-2.04-0.81L5.91,9.34C5.97,9.57,6,9.8,6,10.05s-0.04,0.48-0.09,0.7l7.13,4.17C13.56,14.44,14.24,14.15,15,14.15"/>
</svg>
