<?xml version="1.0" encoding="utf-8"?>
<!-- Generator: Adobe Illustrator 21.1.0, SVG Export Plug-In . SVG Version: 6.00 Build 0)  -->
<svg version="1.1" id="Слой_1" xmlns="http://www.w3.org/2000/svg" xmlns:xlink="http://www.w3.org/1999/xlink" x="0px" y="0px"
	 viewBox="0 0 16 13" enable-background="new 0 0 16 13" xml:space="preserve">
<path opacity="0.3" enable-background="new    " d="M16,1v8c0,0.55-0.45,1-1,1h-5v2h2.5c0.28,0,0.5,0.22,0.5,0.5
	c0,0.28-0.22,0.5-0.5,0.5h-9C3.22,13,3,12.78,3,12.5C3,12.22,3.22,12,3.5,12H6v-2H1c-0.55,0-1-0.45-1-1V1c0-0.55,0.45-1,1-1h14
	C15.55,0,16,0.45,16,1z"/>
</svg>
