<?xml version="1.0" encoding="utf-8"?>
<!-- Generator: Adobe Illustrator 21.1.0, SVG Export Plug-In . SVG Version: 6.00 Build 0)  -->
<svg version="1.1" id="Слой_1" xmlns="http://www.w3.org/2000/svg" xmlns:xlink="http://www.w3.org/1999/xlink" x="0px" y="0px"
	 viewBox="0 0 641 831" enable-background="new 0 0 641 831" xml:space="preserve">
<path fill="#EDF0F3" d="M256,65c0-35.9,29.1-65,65-65c35.9,0,65,29.1,65,65c0,35.9-29.1,65-65,65C285.1,130,256,100.9,256,65z
	 M576,130c35.9,0,65-29.1,65-65c0-35.9-29.1-65-65-65c-35.9,0-65,29.1-65,65C511,100.9,540.1,130,576,130z M321,350
	c-35.9,0-65,29.1-65,65c0,35.9,29.1,65,65,65c35.9,0,65-29.1,65-65C386,379.1,356.9,350,321,350z M321,701c-35.9,0-65,29.1-65,65
	c0,35.9,29.1,65,65,65c35.9,0,65-29.1,65-65C386,730.1,356.9,701,321,701z M193,305c35.9,0,65-29.1,65-65c0-35.9-29.1-65-65-65
	c-35.9,0-65,29.1-65,65C128,275.9,157.1,305,193,305z M193,526c-35.9,0-65,29.1-65,65c0,35.9,29.1,65,65,65c35.9,0,65-29.1,65-65
	C258,555.1,228.9,526,193,526z M576,350c-35.9,0-65,29.1-65,65c0,35.9,29.1,65,65,65c35.9,0,65-29.1,65-65
	C641,379.1,611.9,350,576,350z M576,701c-35.9,0-65,29.1-65,65c0,35.9,29.1,65,65,65c35.9,0,65-29.1,65-65
	C641,730.1,611.9,701,576,701z M448,305c35.9,0,65-29.1,65-65c0-35.9-29.1-65-65-65c-35.9,0-65,29.1-65,65
	C383,275.9,412.1,305,448,305z M448,526c-35.9,0-65,29.1-65,65c0,35.9,29.1,65,65,65c35.9,0,65-29.1,65-65
	C513,555.1,483.9,526,448,526z M65,130c35.9,0,65-29.1,65-65c0-35.9-29.1-65-65-65S0,29.1,0,65C0,100.9,29.1,130,65,130z M65,480
	c35.9,0,65-29.1,65-65c0-35.9-29.1-65-65-65S0,379.1,0,415C0,450.9,29.1,480,65,480z M65,701c-35.9,0-65,29.1-65,65
	c0,35.9,29.1,65,65,65s65-29.1,65-65C130,730.1,100.9,701,65,701z"/>
</svg>
