<?xml version="1.0" encoding="utf-8"?>
<!-- Generator: Adobe Illustrator 21.1.0, SVG Export Plug-In . SVG Version: 6.00 Build 0)  -->
<svg version="1.1" id="Слой_1" xmlns="http://www.w3.org/2000/svg" xmlns:xlink="http://www.w3.org/1999/xlink" x="0px" y="0px"
	 viewBox="0 0 479 1102" enable-background="new 0 0 479 1102" xml:space="preserve">
<path fill="#FFFFFF" d="M167,0l-62,107h124L167,0z M167,38.6l28.32,48.86h-56.63L167,38.6z M102,675V544L0,609.5L102,675z
	 M82.6,639.36L36.1,609.5l46.5-29.86V639.36z M59,317l62,107l62-107H59z M92.69,336.54h56.63L121,385.4L92.69,336.54z M295,473
	l-62,107h124L295,473z M295,511.6l28.31,48.86h-56.63L295,511.6z M328,155v131l102-65.5L328,155z M347.4,190.64l46.51,29.87
	l-46.51,29.86V190.64z M417,843l62-107H355L417,843z M417,804.4l-28.31-48.86h56.63L417,804.4z M426,1102V971l-102,65.5L426,1102z
	 M406.6,1066.36l-46.51-29.87l46.51-29.86V1066.36z M129,953l102-65.5L129,822V953z M148.4,857.63l46.51,29.87l-46.51,29.86V857.63z
	"/>
</svg>
