<?xml version="1.0" encoding="utf-8"?>
<!-- Generator: Adobe Illustrator 21.1.0, SVG Export Plug-In . SVG Version: 6.00 Build 0)  -->
<svg version="1.1" id="Слой_1" xmlns="http://www.w3.org/2000/svg" xmlns:xlink="http://www.w3.org/1999/xlink" x="0px" y="0px"
	 viewBox="0 0 20.39 19.37" enable-background="new 0 0 20.39 19.37" xml:space="preserve">
<path fill="#FFFFFF" d="M16.02,19.37v-6.99c0-1.76-0.63-2.95-2.21-2.95c-1.21,0-1.93,0.81-2.24,1.59c-0.12,0.28-0.15,0.67-0.15,1.06
	v7.3H7.05c0,0,0.06-11.84,0-13.07h4.37v1.85c0.58-0.89,1.62-2.16,3.94-2.16c2.88,0,5.03,1.87,5.03,5.88v7.49H16.02z M11.43,8.15
	c-0.01,0.02-0.03,0.04-0.04,0.06h0.04V8.15z M2.45,4.51H2.42C0.95,4.51,0,3.51,0,2.26C0,0.98,0.98,0,2.47,0
	c1.5,0,2.42,0.97,2.45,2.26C4.92,3.51,3.97,4.51,2.45,4.51z M4.63,19.37H0.26V6.3h4.37V19.37z"/>
</svg>
