<?xml version="1.0" encoding="utf-8"?>
<!-- Generator: Adobe Illustrator 21.1.0, SVG Export Plug-In . SVG Version: 6.00 Build 0)  -->
<svg version="1.1" id="Слой_1" xmlns="http://www.w3.org/2000/svg" xmlns:xlink="http://www.w3.org/1999/xlink" x="0px" y="0px"
	 viewBox="0 0 23.58 17.73" enable-background="new 0 0 23.58 17.73" xml:space="preserve">
<path fill="#FFFFFF" d="M11,7.93c0.11,0.53,0.17,1.36,0.17,2.47v7.32H7.85v-6.6c0-1.29-0.06-2.11-0.18-2.46
	C7.55,8.32,7.34,8.06,7.04,7.86c-0.3-0.2-0.68-0.31-1.13-0.31c-0.52,0-0.99,0.13-1.4,0.39C4.1,8.21,3.79,8.6,3.6,9.12
	c-0.19,0.53-0.29,1.31-0.29,2.35v6.26H0V0h3.31v6.72c1.03-1.18,2.26-1.77,3.67-1.77c0.74,0,1.42,0.14,2.03,0.43
	c0.6,0.28,1.06,0.65,1.36,1.09C10.68,6.91,10.88,7.39,11,7.93z M23.41,7.93c-0.11-0.54-0.32-1.02-0.63-1.47
	c-0.31-0.44-0.76-0.81-1.36-1.09c-0.6-0.28-1.28-0.43-2.03-0.43c-1.41,0-2.64,0.6-3.67,1.77V0h-3.31v17.73h3.31v-6.26
	c0-1.03,0.1-1.82,0.29-2.35c0.19-0.52,0.49-0.91,0.9-1.17c0.41-0.26,0.88-0.39,1.4-0.39c0.46,0,0.84,0.1,1.13,0.3
	c0.3,0.2,0.51,0.47,0.63,0.81c0.12,0.34,0.18,1.17,0.18,2.46v6.6h3.31V10.4C23.58,9.29,23.52,8.46,23.41,7.93z"/>
</svg>
