<?xml version="1.0" encoding="utf-8"?>
<!-- Generator: Adobe Illustrator 21.1.0, SVG Export Plug-In . SVG Version: 6.00 Build 0)  -->
<svg version="1.1" id="Слой_1" xmlns="http://www.w3.org/2000/svg" xmlns:xlink="http://www.w3.org/1999/xlink" x="0px" y="0px"
	 viewBox="0 0 17.26 19.17" enable-background="new 0 0 17.26 19.17" xml:space="preserve">
<path fill="#48D100" d="M17.26,9.38l-8.13,8.13c-2.15,2.15-5.56,2.22-7.62,0.16c-2.06-2.06-1.99-5.47,0.16-7.62l8.84-8.84
	c1.56-1.56,4.04-1.61,5.54-0.11s1.45,3.98-0.11,5.54L8.5,14.06c-0.98,0.98-2.53,1.01-3.46,0.07c-0.94-0.94-0.9-2.49,0.07-3.47
	l6.72-6.72l1.02,1.02l-6.72,6.72c-0.39,0.39-0.4,1.01-0.03,1.39c0.37,0.37,1,0.36,1.39-0.03l7.43-7.43
	c0.98-0.98,1.01-2.53,0.07-3.47s-2.49-0.9-3.46,0.07l-8.84,8.84c-1.56,1.56-1.61,4.04-0.11,5.54c1.5,1.5,3.98,1.45,5.54-0.11
	l8.13-8.13L17.26,9.38z"/>
</svg>
