<?xml version="1.0" encoding="utf-8"?>
<!-- Generator: Adobe Illustrator 21.1.0, SVG Export Plug-In . SVG Version: 6.00 Build 0)  -->
<svg version="1.1" id="Слой_1" xmlns="http://www.w3.org/2000/svg" xmlns:xlink="http://www.w3.org/1999/xlink" x="0px" y="0px"
	 viewBox="0 0 34.4 22.4" enable-background="new 0 0 34.4 22.4" xml:space="preserve">
<path fill="#656565" d="M32.41,20.7c-1.36,1.21-3.47,1.7-7.26,1.7H9.25C1.43,22.4,0,19.56,0,13.96V8.45c0-2.89,0-4.98,1.21-6.4
	C2.44,0.59,4.77,0,9.25,0h15.89c4.38,0,6.67,0.56,7.91,1.92c1.25,1.37,1.34,3.47,1.34,6.52v5.51C34.4,17.45,33.8,19.47,32.41,20.7z
	 M22.08,10.14l-7.22-3.47c-0.34-0.16-0.76-0.15-1.09,0.03c-0.33,0.19-0.53,0.52-0.53,0.88v6.96c0,0.36,0.2,0.69,0.53,0.88
	c0.18,0.1,0.38,0.15,0.57,0.15c0.18,0,0.35-0.04,0.51-0.12l7.22-3.49c0.37-0.18,0.6-0.53,0.6-0.91
	C22.68,10.67,22.45,10.32,22.08,10.14z"/>
</svg>
