<?xml version="1.0" encoding="utf-8"?>
<!-- Generator: Adobe Illustrator 21.1.0, SVG Export Plug-In . SVG Version: 6.00 Build 0)  -->
<svg version="1.1" id="Слой_1" xmlns="http://www.w3.org/2000/svg" xmlns:xlink="http://www.w3.org/1999/xlink" x="0px" y="0px"
	 viewBox="0 0 30.4 22.4" enable-background="new 0 0 30.4 22.4" xml:space="preserve">
<path fill="#656565" d="M30.28,2.7c0.14,0.15,0.15,0.37,0.03,0.53c-0.8,1.08-1.78,2.01-2.92,2.78c0.01,0.16,0.01,0.33,0.01,0.49
	c0,3.86-1.66,7.76-4.55,10.71c-2.32,2.37-6.47,5.18-13.12,5.18c-3.38,0-6.67-0.87-9.52-2.51c-0.19-0.11-0.27-0.33-0.2-0.52
	c0.08-0.19,0.29-0.31,0.52-0.29c0.45,0.05,0.92,0.07,1.38,0.07c2.22,0,4.33-0.55,6.17-1.59c-2.22-0.45-4.07-1.93-4.78-3.94
	c-0.05-0.15-0.02-0.31,0.1-0.43c0.11-0.12,0.29-0.17,0.46-0.14c0.17,0.03,0.33,0.05,0.5,0.06c-1.93-1.04-3.19-2.94-3.19-5.05
	c0-0.03,0-0.05,0-0.08c0-0.15,0.1-0.3,0.25-0.37c0.15-0.08,0.33-0.08,0.48,0c0.28,0.14,0.57,0.26,0.87,0.35
	C1.79,6.92,1.23,5.58,1.23,4.17c0-1.04,0.31-2.06,0.88-2.95C2.2,1.09,2.34,1.01,2.5,1c0.16-0.01,0.32,0.05,0.42,0.16
	c2.85,3.15,7,5.12,11.47,5.48c-0.03-0.25-0.05-0.5-0.05-0.76c0-3.24,2.93-5.87,6.53-5.87c1.7,0,3.35,0.61,4.57,1.68
	c1.2-0.24,2.35-0.65,3.42-1.22c0.18-0.09,0.4-0.08,0.56,0.03c0.16,0.11,0.22,0.31,0.16,0.48c-0.28,0.78-0.73,1.49-1.32,2.09
	c0.5-0.13,0.99-0.29,1.47-0.48C29.91,2.5,30.14,2.55,30.28,2.7z"/>
</svg>
