<?xml version="1.0" encoding="utf-8"?>
<!-- Generator: Adobe Illustrator 21.1.0, SVG Export Plug-In . SVG Version: 6.00 Build 0)  -->
<svg version="1.1" id="Слой_1" xmlns="http://www.w3.org/2000/svg" xmlns:xlink="http://www.w3.org/1999/xlink" x="0px" y="0px"
	 viewBox="0 0 30.4 17.6" enable-background="new 0 0 30.4 17.6" xml:space="preserve">
<path fill="#656565" d="M14.87,17.53c0,0-4.01,0.25-7.54-3.48C3.48,9.97,0.08,1.9,0.08,1.9s-0.2-0.53,0.02-0.78
	c0.24-0.29,0.89-0.31,0.89-0.31l4.34-0.03c0,0,0.41,0.07,0.7,0.29c0.24,0.18,0.38,0.52,0.38,0.52s0.7,1.8,1.63,3.43
	c1.81,3.18,2.66,3.88,3.28,3.54c0.9-0.5,0.63-4.5,0.63-4.5s0.02-1.45-0.45-2.1c-0.36-0.5-1.05-0.65-1.35-0.69
	c-0.24-0.03,0.16-0.61,0.68-0.87c0.78-0.39,2.16-0.41,3.79-0.39c1.27,0.01,1.64,0.09,2.13,0.22c1.5,0.37,0.99,1.78,0.99,5.18
	c0,1.09-0.19,2.62,0.58,3.13c0.33,0.22,1.15,0.03,3.18-3.48c0.97-1.66,1.69-3.62,1.69-3.62s0.16-0.35,0.4-0.5
	c0.25-0.15,0.59-0.11,0.59-0.11l4.57-0.03c0,0,1.37-0.17,1.6,0.46c0.23,0.66-0.51,2.2-2.38,4.73c-3.07,4.15-3.41,3.76-0.86,6.16
	c2.43,2.29,2.94,3.4,3.02,3.54c1.01,1.69-1.12,1.83-1.12,1.83l-4.06,0.06c0,0-0.87,0.18-2.02-0.63c-1.52-1.06-2.95-3.81-4.07-3.45
	c-1.13,0.36-1.1,2.84-1.1,2.84s0.01,0.53-0.25,0.81c-0.28,0.31-0.83,0.37-0.83,0.37H14.87L14.87,17.53z"/>
</svg>
