<?xml version="1.0" encoding="utf-8"?>
<!-- Generator: Adobe Illustrator 21.1.0, SVG Export Plug-In . SVG Version: 6.00 Build 0)  -->
<svg version="1.1" id="Слой_1" xmlns="http://www.w3.org/2000/svg" xmlns:xlink="http://www.w3.org/1999/xlink" x="0px" y="0px"
	 viewBox="0 0 34.9 44.5" style="enable-background:new 0 0 34.9 44.5;" xml:space="preserve">
<style type="text/css">
	.st0{fill:#23CED2;}
</style>
<path class="st0" d="M33.3,31c0,3.4-2,6.5-5.2,8.6v4.9l-4.7-2.8c-1.6,0.5-3.4,0.7-5.3,0.7C9.7,42.4,2.9,37.3,2.9,31
	c0-6.3,6.8-11.4,15.2-11.4C26.5,19.6,33.3,24.7,33.3,31z M5.5,14.5c0.3,0,0.5-0.1,0.8-0.2C6.9,13.8,7,13,6.6,12.4L2.3,6.6
	C1.9,6,1.1,5.9,0.5,6.3C0,6.7-0.2,7.5,0.2,8.1l4.2,5.8C4.7,14.3,5.1,14.5,5.5,14.5z M34.3,5.3c-0.6-0.4-1.4-0.2-1.8,0.4L29,11.5
	c-0.4,0.6-0.2,1.4,0.4,1.8c0.2,0.1,0.4,0.2,0.7,0.2c0.4,0,0.9-0.2,1.1-0.6l3.5-5.7C35.1,6.5,34.9,5.7,34.3,5.3z M17.7,11.6
	c0.7,0,1.3-0.6,1.3-1.3l0-9C19,0.6,18.4,0,17.7,0c-0.7,0-1.3,0.6-1.3,1.3l0,9C16.4,11,17,11.6,17.7,11.6z"/>
</svg>
