<?xml version="1.0" encoding="utf-8"?>
<!-- Generator: Adobe Illustrator 21.1.0, SVG Export Plug-In . SVG Version: 6.00 Build 0)  -->
<svg version="1.1" id="Слой_1" xmlns="http://www.w3.org/2000/svg" xmlns:xlink="http://www.w3.org/1999/xlink" x="0px" y="0px"
	 viewBox="0 0 32 32" enable-background="new 0 0 32 32" xml:space="preserve">
<path fill="#3EAEFF" d="M16,32C7.18,32,0,24.82,0,16C0,7.18,7.18,0,16,0s16,7.18,16,16C32,24.82,24.82,32,16,32z M27.05,13.46
	c-0.34,0.01-0.64-0.09-0.86-0.32c-0.27-0.27-0.61-0.5-0.88-0.64c0.48,1.27,1.91,2.58,2.43,2.98c0.15,0.11,0.24,0.28,0.26,0.47
	c0.02,0.18-0.05,0.37-0.17,0.5C26.95,17.42,26,18.8,26,19.33c0,0.8-0.45,1.19-0.78,1.48c-0.34,0.29-0.56,0.48-0.56,1.19
	c0,2.26-3.44,3.21-3.83,3.31c-0.06,0.01-0.11,0.02-0.17,0.02c-0.19,0-0.37-0.08-0.5-0.22c-0.15-0.17-1.5-1.71-1.5-3.11
	c0-0.77,0.23-1.13,0.48-1.46c0.13-0.17,0.18-0.24,0.18-0.54c0-0.39-0.12-0.66-0.27-1c-0.18-0.41-0.4-0.92-0.4-1.66
	c-0.2-0.29-1.96-0.67-4-0.67c-1.33,0-2.67-0.69-2.67-2c0-0.17-0.02-0.36-0.03-0.56c-0.08-0.86-0.19-2.16,0.9-3.25
	c1.33-1.33,3.37-1.53,4.47-1.53c1.02,0,1.44,0.2,1.82,0.38C19.48,9.87,19.76,10,20.67,10c0.27,0,0.53,0.01,0.79,0.01
	c0.98,0.01,2.1,0.04,2.42-0.29C23.91,9.69,24,9.61,24,9.33C24,8.59,21.95,8,19.33,8C18.38,8,17.71,8.32,17,8.66
	c-0.69,0.33-1.41,0.67-2.33,0.67c-0.18,0-0.35-0.07-0.47-0.2c-0.38-0.38-0.54-0.89-0.45-1.44c0.19-1.22,1.49-2.38,2.62-2.96
	c0.68-0.35,0.8-0.55,0.82-0.59c-0.01,0-0.06-0.11-0.29-0.32c-0.14-0.12-0.22-0.3-0.22-0.48c-0.01-0.18,0.07-0.36,0.19-0.49
	c0.06-0.06,0.15-0.09,0.22-0.14C16.73,2.69,16.37,2.67,16,2.67c-7.07,0-12.86,5.54-13.29,12.51c0.98,0.56,1.5,1.47,1.88,2.17
	c0.19,0.35,0.37,0.68,0.55,0.86c0.24,0.24,0.66,0.28,1.1,0.34C6.85,18.6,8,18.73,8,20c0,0.78-0.38,1.33-0.72,1.82
	c-0.33,0.47-0.61,0.88-0.61,1.51v2.17c2.41,2.36,5.7,3.83,9.33,3.83c7.35,0,13.33-5.98,13.33-13.33c0-1.23-0.18-2.41-0.49-3.54
	C28.23,13,27.59,13.42,27.05,13.46z"/>
</svg>
