<?xml version="1.0" encoding="utf-8"?>
<!-- Generator: Adobe Illustrator 21.1.0, SVG Export Plug-In . SVG Version: 6.00 Build 0)  -->
<svg version="1.1" id="Слой_1" xmlns="http://www.w3.org/2000/svg" xmlns:xlink="http://www.w3.org/1999/xlink" x="0px" y="0px"
	 viewBox="0 0 48.25 58.17" enable-background="new 0 0 48.25 58.17" xml:space="preserve">
<path fill="#B6B4E2" d="M15.64,40.78l-5.11,5.11l-9.6-9.6c-1.22-1.22-1.26-3.27-0.02-4.51l9.03-9.03c0.41-0.41,1.08-0.42,1.49-0.01
	l3.1,3.1c-0.3,0.18-0.59,0.4-0.84,0.65c-1.65,1.65-1.67,4.32-0.04,5.95c1.63,1.63,4.3,1.61,5.95-0.04c0.25-0.25,0.47-0.54,0.65-0.84
	c0.88,0.88,1.46,1.46,2.31,2.31l-3.57,3.57c-0.3,0.3-0.39,0.73-0.25,1.12c0.15,0.39,0.51,0.65,0.92,0.67c0.52,0.03,1,0.24,1.37,0.6
	c0.81,0.81,0.8,2.15-0.02,2.97c-0.83,0.83-2.16,0.83-2.97,0.02c-0.36-0.36-0.58-0.85-0.6-1.36c-0.02-0.48-0.35-0.73-0.35-0.73
	C16.76,40.4,16.09,40.34,15.64,40.78C15.65,40.77,15.65,40.77,15.64,40.78L15.64,40.78C15.65,40.77,15.65,40.77,15.64,40.78
	L15.64,40.78L15.64,40.78z M47.37,31.81l-8.91-8.91c-0.41-0.41-1.07-0.4-1.49,0.01l-4.36,4.36c-0.29,0.3-0.73,0.39-1.12,0.25
	c-0.38-0.15-0.65-0.51-0.67-0.92c-0.02-0.52-0.24-1-0.6-1.36c-0.82-0.81-2.15-0.8-2.97,0.02c-0.83,0.82-0.83,2.16-0.02,2.97
	c0.36,0.36,0.85,0.58,1.37,0.6c0.41,0.02,0.78,0.29,0.92,0.67c0.15,0.39,0.05,0.83-0.25,1.12l-3.56,3.56
	c0.85,0.85,1.43,1.43,2.31,2.31c0.18-0.3,0.4-0.59,0.66-0.84c1.65-1.65,4.32-1.67,5.95-0.04c1.63,1.63,1.61,4.3-0.04,5.95
	c-0.25,0.26-0.54,0.47-0.84,0.66c1.95,1.95,2.89,2.89,3.83,3.83l9.73-9.73C48.53,35.08,48.59,33.03,47.37,31.81z M18.78,15.64
	c0.3,0.3,0.39,0.73,0.25,1.12c-0.14,0.38-0.5,0.65-0.92,0.67c-0.52,0.03-1,0.24-1.36,0.6c-0.81,0.81-0.81,2.15,0.02,2.97
	c0.82,0.82,2.16,0.83,2.97,0.02c0.36-0.36,0.58-0.85,0.6-1.36c0.02-0.42,0.28-0.78,0.67-0.92c0.39-0.15,0.83-0.05,1.12,0.25
	l3.56,3.56L28,20.25c-0.3-0.18-0.59-0.4-0.84-0.65c-1.65-1.65-1.67-4.32-0.04-5.95c1.63-1.63,4.3-1.61,5.95,0.04
	c0.26,0.25,0.47,0.54,0.66,0.84l3.83-3.84l-9.73-9.73c-1.24-1.24-3.29-1.3-4.51-0.08L14.41,9.8c-0.41,0.41-0.4,1.07,0.01,1.49
	L18.78,15.64z M30.63,41.38c0.15-0.39,0.51-0.65,0.92-0.67c0.52-0.03,1-0.24,1.37-0.6c0.82-0.82,0.81-2.15-0.02-2.97
	c-0.83-0.82-2.16-0.83-2.97-0.02c-0.36,0.36-0.58,0.85-0.6,1.37c-0.02,0.41-0.28,0.77-0.67,0.92c-0.39,0.15-0.83,0.05-1.12-0.25
	l-3.57-3.57l-2.31,2.31c0.3,0.18,0.59,0.4,0.84,0.65c1.65,1.65,1.67,4.32,0.04,5.95c-1.63,1.63-4.3,1.61-5.95-0.04
	c-0.25-0.25-0.47-0.54-0.65-0.84l-3.84,3.84l9.78,9.77c1.24,1.24,3.24,1.25,4.46,0.03l9.65-9.65l-5.11-5.11
	C30.58,42.21,30.49,41.77,30.63,41.38z"/>
</svg>
