<?xml version="1.0" encoding="utf-8"?>
<!-- Generator: Adobe Illustrator 21.1.0, SVG Export Plug-In . SVG Version: 6.00 Build 0)  -->
<svg version="1.1" id="Слой_1" xmlns="http://www.w3.org/2000/svg" xmlns:xlink="http://www.w3.org/1999/xlink" x="0px" y="0px"
	 viewBox="0 0 26.98 35.78" enable-background="new 0 0 26.98 35.78" xml:space="preserve">
<path fill="#0ACB43" d="M13.49,0C6.04,0,0,5.56,0,12.42c0,4.35,4.07,11.93,12.22,22.74l0,0c0.52,0.7,1.52,0.84,2.22,0.32
	c0.12-0.09,0.23-0.2,0.32-0.32c8.14-10.81,12.22-18.39,12.22-22.74C26.98,5.56,20.94,0,13.49,0z M13.49,17.39
	c-2.48,0-4.5-1.95-4.5-4.35s2.01-4.35,4.5-4.35s4.5,1.95,4.5,4.35S15.97,17.39,13.49,17.39z"/>
</svg>
